<?xml version="1.0" standalone="no"?>
<!DOCTYPE svg PUBLIC "-//W3C//DTD SVG 20010904//EN"
 "http://www.w3.org/TR/2001/REC-SVG-20010904/DTD/svg10.dtd">
<svg version="1.0" xmlns="http://www.w3.org/2000/svg"
 width="920.000000pt" height="920.000000pt" viewBox="0 0 920.000000 920.000000"
 preserveAspectRatio="xMidYMid meet">

<g transform="translate(0.000000,920.000000) scale(0.100000,-0.100000)"
fill="#000000" stroke="none">
<path d="M4275 9179 c-803 -59 -1560 -320 -2230 -768 -482 -323 -932 -773
-1256 -1256 -508 -759 -780 -1647 -779 -2545 1 -1093 372 -2112 1078 -2963
100 -121 351 -376 482 -491 710 -623 1565 -1004 2510 -1117 154 -19 239 -23
510 -23 389 -1 584 17 924 86 1249 252 2365 1042 3021 2139 339 568 546 1174
626 1839 19 157 23 235 23 520 0 285 -4 363 -23 520 -129 1074 -595 2017
-1367 2770 -781 762 -1810 1221 -2893 1290 -179 11 -465 11 -626 -1z m735
-605 c638 -65 1237 -278 1774 -631 264 -173 450 -328 681 -564 962 -985 1344
-2394 1015 -3735 -134 -549 -398 -1082 -761 -1539 -128 -162 -455 -490 -614
-617 -930 -738 -2073 -1027 -3235 -817 -629 114 -1257 403 -1774 817 -143 115
-393 356 -515 497 -418 483 -718 1064 -866 1675 -130 538 -145 1151 -40 1690
101 522 293 995 582 1434 160 244 287 401 497 614 857 873 2040 1300 3256
1176z"/>
<path d="M2864 5898 c-86 -139 -163 -263 -172 -275 l-14 -23 1128 0 1129 0
168 268 c92 147 167 271 167 275 0 4 -506 7 -1124 7 l-1125 0 -157 -252z"/>
<path d="M6095 6139 c-10 -15 3 -24 33 -24 27 0 27 0 30 -87 3 -80 5 -88 22
-88 18 0 20 7 20 88 l0 89 30 -5 c25 -4 30 -1 30 17 0 20 -5 21 -79 21 -46 0
-83 -5 -86 -11z"/>
<path d="M6290 6146 c-3 -2 -4 -50 -2 -105 3 -80 6 -101 18 -101 11 0 14 17
15 78 l1 77 26 -77 c34 -103 52 -104 83 -8 13 39 26 70 29 70 3 0 4 -31 2 -70
-4 -66 -3 -70 17 -70 21 0 22 3 19 103 -3 96 -4 102 -25 105 -18 3 -25 -6 -42
-52 -11 -30 -23 -67 -27 -81 -9 -34 -14 -27 -44 58 -19 55 -30 73 -45 75 -12
2 -23 1 -25 -2z"/>
<path d="M5479 5728 c-139 -222 -367 -585 -507 -808 -140 -223 -336 -534 -435
-692 l-181 -288 -764 0 c-420 0 -762 4 -760 9 2 4 80 128 173 274 l170 266
460 1 460 0 170 267 c94 146 172 270 173 275 2 4 -473 8 -1056 8 l-1059 0
-171 -270 c-95 -148 -172 -272 -172 -275 0 -3 110 -5 245 -5 135 0 245 -2 245
-5 0 -4 -258 -413 -563 -893 -65 -101 -117 -188 -117 -193 0 -5 595 -9 1450
-9 l1450 0 26 43 c26 40 375 591 828 1305 119 188 220 342 224 341 4 0 93
-132 198 -292 l192 -292 -179 -5 -179 -5 -164 -270 -164 -270 523 -3 523 -2
182 -275 183 -275 329 0 c268 0 329 2 325 13 -5 13 -104 164 -896 1367 -194
294 -475 721 -624 947 -150 227 -275 413 -279 413 -3 0 -120 -181 -259 -402z"/>
</g>
</svg>
